<?xml version="1.0" encoding="UTF-8" standalone="no"?>
<!-- Created with Inkscape (http://www.inkscape.org/) -->

<svg
   width="512"
   height="512"
   viewBox="0 0 512 512"
   version="1.1"
   id="svg1"
   inkscape:export-filename="emblemPackge.png"
   inkscape:export-xdpi="96"
   inkscape:export-ydpi="96"
   inkscape:version="1.4.3 (fcd0343856, 2026-01-01)"
   sodipodi:docname="dark.svg"
   xmlns:inkscape="http://www.inkscape.org/namespaces/inkscape"
   xmlns:sodipodi="http://sodipodi.sourceforge.net/DTD/sodipodi-0.dtd"
   xmlns:xlink="http://www.w3.org/1999/xlink"
   xmlns="http://www.w3.org/2000/svg"
   xmlns:svg="http://www.w3.org/2000/svg">
  <sodipodi:namedview
     id="namedview1"
     pagecolor="#ffffff"
     bordercolor="#999999"
     borderopacity="1"
     inkscape:showpageshadow="2"
     inkscape:pageopacity="0"
     inkscape:pagecheckerboard="0"
     inkscape:deskcolor="#d1d1d1"
     inkscape:document-units="px"
     inkscape:zoom="0.35355339"
     inkscape:cx="149.90664"
     inkscape:cy="521.8448"
     inkscape:window-width="1920"
     inkscape:window-height="1011"
     inkscape:window-x="0"
     inkscape:window-y="0"
     inkscape:window-maximized="1"
     inkscape:current-layer="g10" />
  <defs
     id="defs1">
    <linearGradient
       id="linearGradient3"
       inkscape:collect="always">
      <stop
         style="stop-color:#ffffff;stop-opacity:1;"
         offset="0"
         id="stop4" />
      <stop
         style="stop-color:#fffefd;stop-opacity:0;"
         offset="1"
         id="stop5" />
    </linearGradient>
    <linearGradient
       id="linearGradient2"
       inkscape:collect="always">
      <stop
         style="stop-color:#ffc107;stop-opacity:1;"
         offset="0"
         id="stop2" />
      <stop
         style="stop-color:#ffffff;stop-opacity:0;"
         offset="1"
         id="stop3" />
    </linearGradient>
    <linearGradient
       inkscape:collect="always"
       xlink:href="#linearGradient2"
       id="linearGradient10"
       x1="219.5864"
       y1="182.00069"
       x2="209.97279"
       y2="184.69249"
       gradientUnits="userSpaceOnUse" />
    <linearGradient
       inkscape:collect="always"
       xlink:href="#linearGradient3"
       id="linearGradient5"
       x1="220.54774"
       y1="176.4248"
       x2="220.74002"
       y2="184.69249"
       gradientUnits="userSpaceOnUse" />
  </defs>
  <g
     inkscape:label="Layer 1"
     inkscape:groupmode="layer"
     id="layer1">
    <g
       id="g4"
       transform="translate(502.43587,1.2752179)">
      <g
         id="g10"
         transform="matrix(1.7663659,0,0,1.7663659,-626.78862,-179.80191)">
        <path
           style="fill:#fefdfe;fill-opacity:1;stroke-width:1.07189"
           d="m 108.22372,181.19801 c 42.60066,-54.85456 147.48739,-92.545956 202.30023,-49.89161 56.09611,43.65297 50.18153,164.10681 1.36688,213.23537 -48.81464,49.12856 -159.02807,42.91155 -202.30021,0 C 66.318466,301.63022 74.826028,224.2024 108.22372,181.19801 Z"
           id="path4"
           sodipodi:nodetypes="aszza" />
        <path
           style="fill:#000000"
           d="m 115.40722,185.54421 c 39.7435,-51.17555 137.59564,-86.339043 188.73226,-46.54546 52.33383,40.72523 46.81593,153.10042 1.27521,198.934 -45.54072,45.83358 -148.3623,40.03354 -188.73225,0 C 76.312487,297.89921 84.24946,225.66436 115.40722,185.54421 Z"
           id="path1"
           sodipodi:nodetypes="aszza" />
        <path
           style="fill:#ffffff;stroke-width:0.907089;fill-opacity:1"
           d="m 124.69124,191.16127 c 36.05088,-46.42076 124.81145,-78.31717 171.1969,-42.22086 47.47143,36.9414 42.4662,138.87566 1.15673,180.45079 -41.30947,41.57512 -134.57777,36.31397 -171.1969,0 C 89.228843,293.07722 96.428382,227.55381 124.69124,191.16127 Z"
           id="path2"
           sodipodi:nodetypes="aszza" />
        <path
           style="fill:#000000;stroke-width:0.792737"
           d="m 134.22472,198.75134 c 31.50612,-40.56872 109.07707,-68.4441 149.61493,-36.89828 41.48693,32.28437 37.11268,121.36827 1.0109,157.70222 -36.10178,36.33394 -117.61219,31.73604 -149.61492,0 -32.00273,-31.73605 -25.71081,-88.99924 -1.01091,-120.80394 z"
           id="path3"
           sodipodi:nodetypes="aszza" />
        <path
           d="m 174.13182,253.03683 v -35.04 h 11.664 q 3.504,0 6.096,1.344 2.64,1.344 4.08,3.792 1.44,2.4 1.44,5.664 0,3.264 -1.44,5.712 -1.44,2.4 -4.08,3.744 -2.592,1.344 -6.096,1.344 h -5.664 v 13.44 z m 6,-18.72 h 5.664 q 2.544,0 4.032,-1.536 1.488,-1.536 1.488,-3.984 0,-2.448 -1.488,-3.984 -1.488,-1.536 -4.032,-1.536 h -5.664 z m 22.79993,18.72 v -35.04 h 6 v 14.208 h 9.408 v -14.208 h 6 v 35.04 h -6 v -15.408 h -9.408 v 15.408 z m 28.79993,0 v -35.04 h 11.664 q 3.504,0 6.096,1.344 2.64,1.344 4.08,3.792 1.44,2.4 1.44,5.664 0,3.264 -1.44,5.712 -1.44,2.4 -4.08,3.744 -2.592,1.344 -6.096,1.344 h -5.664 v 13.44 z m 6,-18.72 h 5.664 q 2.544,0 4.032,-1.536 1.488,-1.536 1.488,-3.984 0,-2.448 -1.488,-3.984 -1.488,-1.536 -4.032,-1.536 h -5.664 z"
           id="text3"
           style="font-weight:bold;font-size:48px;font-family:'JetBrains Mono';-inkscape-font-specification:'JetBrains Mono Bold';fill:#ffffff;fill-opacity:1"
           aria-label="PHP" />
        <path
           d="m 136.14757,196.50934 q -0.66912,0.80312 -1.41889,0.96981 -0.75797,0.15987 -1.38079,-0.35905 l 0.83982,-1.00799 q 0.26224,0.21849 0.5586,0.14608 0.30318,-0.0806 0.58995,-0.4248 l 0.30043,-0.36059 q 0.30725,-0.36878 0.3318,-0.68153 0.0314,-0.32095 -0.23086,-0.53944 -0.24585,-0.20484 -0.47666,-0.16111 -0.239,0.0369 -0.51895,0.28959 l -1.08292,0.99982 q -0.52439,0.47943 -1.11439,0.48768 -0.58317,6e-5 -1.13224,-0.45741 -0.63921,-0.53257 -0.62016,-1.23865 0.0109,-0.71291 0.67998,-1.51603 l 0.31408,-0.37697 q 0.62816,-0.75395 1.35471,-0.92611 0.72655,-0.17215 1.31386,0.28941 l -0.84665,1.01619 q -0.2199,-0.16933 -0.49304,-0.0915 -0.28133,0.0711 -0.53396,0.37427 l -0.31408,0.37697 q -0.27311,0.3278 -0.27718,0.61597 -0.0123,0.28134 0.2172,0.47252 0.20488,0.1707 0.40563,0.12971 0.20759,-0.0492 0.43701,-0.27456 l 1.0283,-0.93426 q 0.59267,-0.56138 1.22091,-0.56554 0.62687,-0.0192 1.2415,0.4929 0.6556,0.54623 0.64066,1.29738 -0.0163,0.73613 -0.73324,1.59662 z m 4.41556,-4.9564 q -0.77023,0.81311 -1.65951,0.85229 -0.89702,0.0318 -1.67916,-0.70905 l -2.64842,-2.50875 0.91694,-0.96799 2.64068,2.50141 q 0.40268,0.38145 0.81798,0.39284 0.4153,0.0114 0.7674,-0.36032 0.34477,-0.36397 0.31092,-0.77804 -0.0265,-0.42182 -0.4292,-0.80326 l -2.64068,-2.50142 0.91694,-0.96799 2.64843,2.50875 q 0.78214,0.74089 0.79156,1.64606 0.002,0.89785 -0.75388,1.69547 z m 4.04165,-1.55939 -5.33643,-5.67054 0.94768,-0.89185 0.73833,0.78456 q -0.26361,-0.51358 -0.17266,-1.02395 0.0836,-0.51813 0.53418,-0.94212 0.4117,-0.38744 0.91248,-0.47788 0.50855,-0.0978 1.03033,0.11428 0.52224,0.19695 0.98278,0.68633 l 1.08921,1.15741 q 0.69447,0.73795 0.73784,1.54669 0.0434,0.80873 -0.58584,1.40085 -0.45053,0.424 -0.98055,0.48337 -0.52226,0.0521 -1.03352,-0.25776 l 0.98139,0.98059 1.12577,1.19625 z m -0.27669,-3.81157 q 0.37286,-0.35089 0.38476,-0.74291 0.0197,-0.39934 -0.37508,-0.81881 l -1.03805,-1.10304 q -0.39475,-0.41946 -0.79454,-0.42405 -0.39203,-0.0119 -0.76489,0.33899 -0.37286,0.35089 -0.37059,0.77353 0.01,0.41533 0.39747,0.82703 l 0.96494,1.02536 q 0.38744,0.41169 0.8014,0.4469 0.42173,0.0279 0.79458,-0.323 z m 4.89432,-0.47361 -5.03153,-5.94275 0.99317,-0.84088 0.69614,0.82221 q -0.2363,-0.52671 -0.11869,-1.03159 0.11071,-0.51304 0.58288,-0.9128 0.43146,-0.3653 0.93629,-0.42934 0.51298,-0.0709 1.02292,0.16818 0.51118,0.22409 0.94541,0.73696 l 1.02698,1.21297 q 0.65479,0.77337 0.65566,1.58327 8.7e-4,0.80989 -0.65853,1.36819 -0.47217,0.39976 -1.00457,0.43124 -0.52427,0.0246 -1.01857,-0.31163 l 0.92859,1.03073 1.06144,1.25368 z m -0.0763,-3.82084 q 0.39076,-0.33084 0.42321,-0.7217 0.0406,-0.39776 -0.3316,-0.83736 l -0.97873,-1.15599 q -0.3722,-0.4396 -0.77121,-0.46516 -0.39086,-0.0325 -0.78162,0.29839 -0.39075,0.33084 -0.41067,0.75302 -0.0118,0.41529 0.35353,0.84675 l 0.90981,1.07457 q 0.3653,0.43146 0.77684,0.48834 0.41969,0.05 0.81044,-0.28086 z m 5.69418,-3.11824 q -0.89743,0.68777 -1.80516,0.59053 -0.91422,-0.1057 -1.56955,-0.96081 l -0.83051,-1.0837 q -0.66181,-0.86357 -0.51971,-1.76536 0.1421,-0.9018 1.03954,-1.58956 0.89743,-0.68777 1.80516,-0.59053 0.90773,0.0972 1.56955,0.9608 l 0.83051,1.0837 q 0.65532,0.85511 0.51971,1.76537 -0.1421,0.90179 -1.03954,1.58956 z m -0.70723,-0.92284 q 0.42332,-0.32441 0.47673,-0.72819 0.0554,-0.41874 -0.28202,-0.85899 l -0.88241,-1.15142 q -0.3374,-0.44026 -0.74964,-0.48717 -0.41027,-0.0619 -0.83359,0.26254 -0.42332,0.32442 -0.4787,0.74315 -0.0534,0.40378 0.28399,0.84403 l 0.88241,1.15143 q 0.3374,0.44025 0.74767,0.50212 0.41224,0.0469 0.83556,-0.2775 z m 4.04007,-1.69014 -3.35207,-4.81473 1.068,-0.74355 0.65213,0.93669 q -0.24157,-0.53367 -0.0891,-1.04274 0.15513,-0.52391 0.70664,-0.90788 0.73534,-0.51195 1.47589,-0.32568 0.74055,0.18627 1.33174,1.03542 l 0.31692,0.45521 -1.09426,0.76183 -0.28035,-0.40269 q -0.30474,-0.4377 -0.6908,-0.50684 -0.39216,-0.0779 -0.81236,0.21464 -0.4377,0.30473 -0.48247,0.72582 -0.0448,0.42108 0.29044,0.90255 l 2.05391,2.95012 z m 7.60412,-5.09147 q -0.69385,0.43952 -1.3595,0.3056 -0.66236,-0.14863 -1.09617,-0.83346 l -1.55258,-2.45097 -1.36966,0.86762 -0.64501,-1.01824 1.36966,-0.86762 -0.88474,-1.39669 1.13538,-0.71921 0.88474,1.39669 1.9734,-1.25006 0.645,1.01824 -1.97339,1.25006 1.53546,2.42394 q 0.13699,0.21626 0.34546,0.28623 0.21177,0.0553 0.42804,-0.0817 l 1.46878,-0.93041 0.64501,1.01824 z m 9.37294,-3.27197 -3.60763,-6.90055 1.15325,-0.60292 0.49913,0.95473 q -0.11519,-0.56567 0.11016,-1.03254 0.2204,-0.47632 0.76866,-0.76295 0.501,-0.26193 1.0076,-0.21383 0.51606,0.0431 0.96123,0.38816 0.44969,0.33062 0.76103,0.92615 l 0.73635,1.40847 q 0.46949,0.89801 0.29294,1.68843 -0.17656,0.79042 -0.94224,1.19072 -0.54826,0.28663 -1.07463,0.20073 -0.51692,-0.0909 -0.92558,-0.52718 l 0.68027,1.2091 0.76106,1.45573 z m 0.76247,-3.74476 q 0.45374,-0.23722 0.57102,-0.61148 0.12673,-0.37921 -0.14013,-0.88966 l -0.70176,-1.3423 q -0.26686,-0.51045 -0.65058,-0.62279 -0.37426,-0.11728 -0.828,0.11993 -0.45373,0.23722 -0.56564,0.64478 -0.10246,0.40262 0.15946,0.90362 l 0.65234,1.24777 q 0.26192,0.501 0.65101,0.64664 0.39855,0.1407 0.85228,-0.0965 z m 5.64351,-1.53395 q -0.81018,0.38266 -1.49689,0.15256 -0.68162,-0.24431 -1.03239,-0.98698 -0.36443,-0.7716 -0.0481,-1.47546 0.31182,-0.71351 1.23774,-1.15083 l 1.29244,-0.61042 -0.17766,-0.37616 q -0.3781,-0.80054 -1.31367,-0.35867 -0.42438,0.20044 -0.59771,0.48285 -0.17333,0.2824 -0.061,0.59507 l -1.1574,0.54665 q -0.29852,-0.73196 0.0513,-1.43984 0.35951,-0.71244 1.31437,-1.16343 1.01273,-0.47832 1.79536,-0.26992 0.78262,0.20839 1.18805,1.0668 l 1.69917,3.5976 -1.17669,0.55576 -0.46921,-0.99344 q 0.17392,0.54307 -0.10415,1.02831 -0.27808,0.48523 -0.94359,0.79955 z m -0.0789,-1.16601 q 0.53048,-0.25054 0.71613,-0.65673 0.18564,-0.40619 -0.0194,-0.84022 l -0.2961,-0.62693 -1.23457,0.5831 q -0.39545,0.18677 -0.52215,0.51793 -0.12671,0.33117 0.0373,0.67839 0.16855,0.35687 0.51445,0.46482 0.35099,0.0937 0.8043,-0.12036 z m 6.59234,-1.76317 q -0.69732,0.29547 -1.32605,0.26068 -0.62308,-0.0488 -1.10765,-0.39952 -0.48874,-0.36056 -0.7634,-1.00878 l -0.5743,-1.35535 q -0.27466,-0.64821 -0.18959,-1.24032 0.0809,-0.60194 0.48341,-1.0737 0.40817,-0.48574 1.10549,-0.78121 1.01161,-0.42864 1.84526,-0.1563 0.83931,0.25836 1.25164,1.14944 l -1.20803,0.51187 q -0.20842,-0.40983 -0.59877,-0.51088 -0.3847,-0.11503 -0.83649,0.0764 -0.50089,0.21224 -0.66918,0.60792 -0.17246,0.38586 0.0398,0.88675 l 0.57845,1.36518 q 0.21224,0.50089 0.61359,0.6552 0.40134,0.15432 0.90223,-0.0579 0.46161,-0.19559 0.65071,-0.54217 0.18495,-0.3564 0.0355,-0.79121 l 1.20804,-0.51187 q 0.3534,0.91606 -0.0406,1.70859 -0.38836,0.77855 -1.39997,1.20719 z m 3.6357,-1.61811 -2.74222,-7.28785 1.24792,-0.46956 1.48756,3.95341 0.87854,-0.33057 0.49642,-2.6485 1.38769,-0.52215 -0.62807,3.26788 2.75403,2.20043 -1.41764,0.53342 -2.19424,-1.77284 -0.87854,0.33057 0.85647,2.2762 z m 7.31256,-0.63042 -0.34693,-1.05369 1.57041,-0.51706 q 0.44579,-0.14678 0.60889,-0.47 0.16643,-0.31309 0.033,-0.71836 l -0.11009,-0.33434 -0.26662,-0.878 q -0.0188,0.52277 -0.31706,0.91296 -0.29147,0.37672 -0.83858,0.55685 -0.85106,0.28022 -1.54445,-0.12036 -0.6866,-0.41405 -1.01018,-1.39682 l -0.35694,-1.08409 q -0.32024,-0.97264 -0.0139,-1.7136 0.31643,-0.7443 1.16749,-1.02451 0.54711,-0.18014 1.00872,-0.0401 0.4684,0.12653 0.79742,0.54601 l -0.29356,-0.89159 1.23606,-0.40698 1.80805,5.49136 q 0.29022,0.88145 -0.13062,1.58152 -0.40738,0.70686 -1.41041,1.03711 z m 0.40161,-3.72583 q 0.48632,-0.16012 0.65634,-0.53054 0.17681,-0.38389 0.007,-0.9006 l -0.32024,-0.97264 q -0.17013,-0.51672 -0.53709,-0.71033 -0.36016,-0.20709 -0.84648,-0.047 -0.48632,0.16012 -0.65634,0.53054 -0.17336,0.36029 -0.01,0.85674 l 0.34693,1.05369 q 0.16346,0.49646 0.52029,0.69341 0.35349,0.18682 0.83981,0.0267 z m 6.65665,-0.36269 q -0.71864,0.20266 -1.33066,0.076 -0.61202,-0.12664 -1.0516,-0.54573 -0.43221,-0.43225 -0.62619,-1.12009 l -0.37637,-1.33462 q -0.19397,-0.68784 -0.0484,-1.27195 0.15297,-0.59728 0.60865,-1.02501 0.45568,-0.42774 1.17432,-0.6304 0.70837,-0.19976 1.31012,-0.0702 0.61202,0.12665 1.04133,0.54863 0.43669,0.40882 0.62488,1.07613 l 0.28951,1.02663 -3.49054,0.98435 0.11002,0.39012 q 0.16213,0.57491 0.54381,0.78867 0.37878,0.2035 0.9229,0.0501 0.40038,-0.11291 0.63993,-0.32454 0.24693,-0.2248 0.22299,-0.5062 l 1.27302,-0.35899 q 0.0721,0.76654 -0.42966,1.38459 -0.50465,0.60779 -1.40808,0.86256 z m -2.16444,-3.3129 0.055,0.19506 2.25568,-0.6472 -0.055,-0.19506 q -0.16503,-0.58518 -0.54223,-0.82237 -0.37721,-0.23719 -0.92132,-0.0838 -0.56465,0.15924 -0.75946,0.56882 -0.1977,0.39932 -0.0327,0.9845 z m 13.53654,0.49625 -0.69945,-3.79747 -1.58403,0.29176 -0.21834,-1.18539 1.58403,-0.29176 -0.18742,-1.01756 q -0.13912,-0.75529 0.28133,-1.29912 0.42045,-0.54382 1.24918,-0.69647 l 1.68893,-0.31108 0.21254,1.15393 -1.65746,0.30528 q -0.25177,0.0464 -0.38207,0.22222 -0.12175,0.16343 -0.0773,0.4047 l 0.18356,0.99657 2.21344,-0.40769 0.21834,1.1854 -2.21344,0.40769 0.69945,3.79747 z m 7.38208,-1.10002 q -1.12092,0.14818 -1.85903,-0.38905 -0.73951,-0.54781 -0.88071,-1.61586 l -0.17894,-1.35356 q -0.14259,-1.07862 0.43056,-1.7892 0.57315,-0.71058 1.69407,-0.85876 1.12092,-0.14819 1.85903,0.38905 0.73811,0.53723 0.8807,1.61585 l 0.17894,1.35356 q 0.1412,1.06804 -0.43056,1.7892 -0.57315,0.71058 -1.69406,0.85877 z m -0.15238,-1.15265 q 0.52873,-0.0699 0.7765,-0.39316 0.25695,-0.33523 0.18426,-0.88512 l -0.19012,-1.43815 q -0.0727,-0.54989 -0.40653,-0.79626 -0.32466,-0.25835 -0.8534,-0.18845 -0.52873,0.0699 -0.78568,0.40513 -0.24777,0.32326 -0.17508,0.87315 l 0.19012,1.43816 q 0.0727,0.54988 0.39736,0.80823 0.33383,0.24637 0.86257,0.17647 z m 4.34491,0.55511 -0.45076,-5.84934 1.29749,-0.1 0.0877,1.13796 q 0.0621,-0.58249 0.45146,-0.94415 0.39918,-0.37311 1.0692,-0.42474 0.89335,-0.0688 1.43746,0.46694 0.54411,0.53577 0.62361,1.56739 l 0.0426,0.55302 -1.3294,0.10245 -0.0377,-0.48922 q -0.041,-0.53175 -0.3388,-0.78696 -0.29864,-0.26584 -0.80913,-0.2265 -0.53176,0.041 -0.78369,0.38134 -0.25192,0.34037 -0.20685,0.9253 l 0.2762,3.58405 z m 13.88326,-0.43517 0.18054,-3.85712 -1.60891,-0.0753 0.0564,-1.20402 1.60891,0.0753 0.0484,-1.03354 q 0.0359,-0.76716 0.56879,-1.20139 0.53289,-0.43423 1.37464,-0.39483 l 1.71546,0.0803 -0.0549,1.17205 -1.6835,-0.0788 q -0.25572,-0.012 -0.42252,0.12972 -0.15566,0.13154 -0.16713,0.3766 l -0.0474,1.01223 2.24821,0.10523 -0.0563,1.20402 -2.24821,-0.10523 -0.18054,3.85712 z m 5.29273,0.31576 0.6887,-5.82613 1.29234,0.15277 -0.13398,1.13345 q 0.17355,-0.5595 0.62549,-0.83905 0.46379,-0.28888 1.13114,-0.21 0.88981,0.10519 1.32006,0.73606 0.43025,0.63087 0.30879,1.65839 l -0.0651,0.55083 -1.32412,-0.15652 0.0576,-0.48728 q 0.0626,-0.52965 -0.18025,-0.83762 -0.24161,-0.31857 -0.75007,-0.37867 -0.52965,-0.0626 -0.84263,0.22262 -0.31298,0.28523 -0.38185,0.86784 l -0.42199,3.56983 z m 7.81258,1.22482 q -0.8789,-0.17425 -1.29409,-0.76766 -0.40266,-0.60179 -0.24293,-1.40745 0.16595,-0.83704 0.83891,-1.21471 0.67504,-0.38814 1.67949,-0.189 l 1.40205,0.27797 0.0809,-0.40806 q 0.17218,-0.86844 -0.84274,-1.06965 -0.46037,-0.0913 -0.76768,0.0327 -0.3073,0.12394 -0.403,0.44207 l -1.25556,-0.24892 q 0.19535,-0.76597 0.89763,-1.12696 0.71274,-0.35891 1.74859,-0.15354 1.09862,0.2178 1.60383,0.85081 0.50521,0.633 0.32059,1.56421 l -0.77374,3.90272 -1.27649,-0.25307 0.21366,-1.0777 q -0.18318,0.54002 -0.69533,0.76472 -0.51214,0.22469 -1.23409,0.0816 z m 0.63011,-0.98426 q 0.57547,0.11409 0.96629,-0.10203 0.39083,-0.21612 0.48418,-0.68696 l 0.13483,-0.6801 -1.33927,-0.26552 q -0.42899,-0.085 -0.72781,0.10582 -0.29882,0.19086 -0.3735,0.56753 -0.0768,0.38714 0.13711,0.67965 0.22641,0.28412 0.71817,0.38161 z m 3.65454,1.76241 1.63031,-5.63561 1.06564,0.30828 -0.23713,0.81972 0.0307,0.009 q 0.1493,-0.40097 0.47957,-0.58303 0.33027,-0.18206 0.71964,-0.0694 0.37912,0.10967 0.57439,0.43266 0.19824,0.31274 0.17189,0.74928 0.15955,-0.39801 0.48389,-0.55957 0.33755,-0.16885 0.73717,-0.0533 0.51233,0.14821 0.7319,0.65589 0.22253,0.49744 0.0388,1.13272 l -1.242,4.29331 -1.12712,-0.32606 1.21532,-4.20109 q 0.08,-0.27665 -0.009,-0.46889 -0.0755,-0.19951 -0.3112,-0.26769 -0.4611,-0.13339 -0.63302,0.46091 l -1.21532,4.20109 -1.02466,-0.29642 1.21532,-4.20109 q 0.08,-0.27665 0.002,-0.46592 -0.0653,-0.19655 -0.29071,-0.26177 -0.49183,-0.14228 -0.66376,0.45202 l -1.21532,4.20109 z m 8.62063,2.91155 q -0.69462,-0.27388 -1.10499,-0.74526 -0.41037,-0.47138 -0.50643,-1.07108 -0.0822,-0.60571 0.17991,-1.27057 l 0.50863,-1.29002 q 0.26214,-0.66486 0.73171,-1.04154 0.4834,-0.3827 1.10504,-0.44718 0.62165,-0.0645 1.31628,0.20941 0.6847,0.26996 1.08515,0.73743 0.41037,0.47138 0.4965,1.06717 0.1,0.58978 -0.15434,1.23479 l -0.39125,0.99232 -3.3739,-1.33026 -0.14868,0.37708 q -0.2191,0.5557 -0.0448,0.95694 0.17822,0.39131 0.70415,0.59868 0.38701,0.15258 0.7058,0.12922 0.33263,-0.0294 0.48397,-0.26781 l 1.23048,0.48515 q -0.40679,0.65369 -1.18035,0.84172 -0.76964,0.17811 -1.64289,-0.16619 z m 0.28356,-3.94712 -0.0743,0.18854 2.18703,0.85084 0.0743,-0.18854 q 0.22302,-0.56563 0.0665,-0.9828 -0.15656,-0.41717 -0.6825,-0.62453 -0.54577,-0.21519 -0.94883,-0.007 -0.39913,0.19807 -0.62215,0.76369 z m 3.69643,5.51447 1.8797,-5.6326 0.93803,0.48502 -1.18675,3.43315 q -0.11397,0.31332 -0.26192,0.66912 -0.14794,0.3558 -0.24657,0.593 0.12705,-0.2225 0.33185,-0.54891 0.20479,-0.3264 0.41352,-0.59073 l 2.21952,-2.89914 0.98541,0.50951 -1.10147,3.47725 q -0.095,0.32312 -0.24787,0.68839 -0.13847,0.3607 -0.2371,0.5979 0.13653,-0.2176 0.33185,-0.54891 0.20969,-0.33588 0.40894,-0.60511 l 2.12478,-2.94813 0.9096,0.47032 -3.52835,4.78015 -1.22228,-0.63199 1.16812,-3.4668 q 0.0898,-0.2898 0.22827,-0.6505 0.14337,-0.37017 0.2371,-0.5979 -0.12215,0.21303 -0.3508,0.53911 -0.22374,0.31661 -0.39882,0.56231 l -2.17248,2.94749 z m 7.34062,4.28677 q -0.94255,-0.62451 -1.14625,-1.51442 -0.1978,-0.8988 0.39726,-1.79689 l 0.75413,-1.13817 q 0.60094,-0.90698 1.49985,-1.06632 0.89891,-0.15935 1.84146,0.46517 0.94255,0.62451 1.14624,1.51442 0.2037,0.88991 -0.39725,1.79689 l -0.75413,1.13817 q -0.59506,0.89809 -1.49986,1.06632 -0.8989,0.15935 -1.84145,-0.46517 z m 0.64219,-0.96922 q 0.44459,0.29458 0.84375,0.21357 0.41394,-0.084 0.72031,-0.54639 l 0.80126,-1.20931 q 0.30637,-0.46238 0.21647,-0.86743 -0.0751,-0.40805 -0.51972,-0.70263 -0.4446,-0.29458 -0.85854,-0.21057 -0.39916,0.081 -0.70552,0.54339 l -0.80126,1.2093 q -0.30637,0.46239 -0.23125,0.87044 0.0899,0.40505 0.5345,0.69963 z m 2.87757,3.32421 3.76366,-4.50032 0.99825,0.83485 -0.7322,0.87552 q 0.45134,-0.37342 0.98259,-0.3602 0.54627,0.0119 1.06177,0.44299 0.68732,0.57481 0.70237,1.33829 0.015,0.76347 -0.64872,1.55716 l -0.35584,0.42549 -1.0228,-0.85538 0.31478,-0.37639 q 0.34215,-0.40912 0.30732,-0.79978 -0.028,-0.39885 -0.42073,-0.72731 -0.40912,-0.34215 -0.82716,-0.2746 -0.41803,0.0676 -0.79439,0.51759 l -2.3061,2.75747 z m 4.72331,4.08014 5.60693,-5.40323 0.92521,0.96009 -3.04156,2.93107 0.65134,0.6759 2.62866,-0.59259 1.02884,1.06762 -3.24955,0.71689 -0.93044,3.40013 -1.05104,-1.09067 0.75938,-2.7168 -0.65135,-0.6759 -1.75121,1.68758 z"
           id="text4"
           style="font-weight:bold;font-size:10.6667px;font-family:'JetBrains Mono';-inkscape-font-specification:'JetBrains Mono Bold';fill:#000000"
           transform="translate(0,-4)"
           aria-label="support packge for framework" />
        <g
           id="g9"
           style="fill:url(#linearGradient10);fill-opacity:1"
           transform="matrix(2.9444444,0,0,2.9444444,-436.32445,-225.91736)">
          <path
             d="m 212.56413,171.72478 a 1,1 0 0 0 -1,1 v 1 a 1,1 0 0 0 1,1 h 16 a 1,1 0 0 0 1,-1 v -1 a 1,1 0 0 0 -1,-1 z"
             id="path1-3"
             style="fill:#ffffff;fill-opacity:1" />
          <path
             clip-rule="evenodd"
             fill-rule="evenodd"
             d="m 212.56413,176.22478 h 16 l -0.811,7.71 a 2,2 0 0 1 -1.99,1.79 h -10.397 a 2,2 0 0 1 -1.99,-1.79 z m 5,3.5 a 1,1 0 0 1 1,-1 h 4 a 1,1 0 1 1 0,2 h -4 a 1,1 0 0 1 -1,-1 z"
             id="path2-6"
             style="fill:url(#linearGradient5);fill-opacity:1" />
        </g>
        <path
           d="m 172.06547,269.72479 v -5.86668 h 1.10933 v 0.85333 h 0.032 q 0.032,-0.42666 0.29867,-0.69333 0.26667,-0.26667 0.672,-0.26667 0.39467,0 0.67201,0.256 0.27733,0.24534 0.37333,0.672 0.0427,-0.42666 0.30934,-0.672 0.27733,-0.256 0.69333,-0.256 0.53334,0 0.88534,0.42667 0.352,0.416 0.352,1.07734 v 4.46934 h -1.17334 v -4.37334 q 0,-0.28801 -0.13867,-0.44801 -0.128,-0.17066 -0.37333,-0.17066 -0.48,0 -0.48,0.61867 v 4.37334 h -1.06667 v -4.37334 q 0,-0.28801 -0.128,-0.44801 -0.11734,-0.17066 -0.352,-0.17066 -0.51201,0 -0.51201,0.61867 v 4.37334 z m 8.44801,0.10667 q -0.896,0 -1.41867,-0.50134 -0.512,-0.512 -0.512,-1.33333 0,-0.85334 0.58666,-1.35467 0.58667,-0.51201 1.61068,-0.51201 h 1.42933 v -0.416 q 0,-0.88533 -1.03467,-0.88533 -0.46933,0 -0.74667,0.18133 -0.27733,0.18133 -0.30933,0.512 h -1.28 q 0.0427,-0.78933 0.66133,-1.28 0.62934,-0.49067 1.68534,-0.49067 1.12,0 1.73867,0.52267 0.61867,0.52267 0.61867,1.472 v 3.97868 h -1.30134 v -1.09867 q -0.0747,0.56534 -0.53333,0.88534 -0.45867,0.32 -1.19467,0.32 z m 0.42667,-1.088 q 0.58666,0 0.928,-0.288 0.34133,-0.28801 0.34133,-0.76801 v -0.69333 h -1.36533 q -0.43734,0 -0.69334,0.24533 -0.256,0.24534 -0.256,0.62934 0,0.39466 0.26667,0.64 0.27733,0.23467 0.77867,0.23467 z m 4.45866,0.98133 v -5.86668 h 1.30134 v 1.14133 q 0.10666,-0.576 0.52267,-0.90667 0.42666,-0.34133 1.09867,-0.34133 0.896,0 1.39733,0.576 0.50134,0.576 0.50134,1.61067 v 0.55467 h -1.33334 v -0.49067 q 0,-0.53333 -0.27733,-0.81067 -0.27734,-0.288 -0.78934,-0.288 -0.53333,0 -0.81067,0.32 -0.27733,0.32001 -0.27733,0.90667 v 3.59468 z m 6.24,0 v -7.78669 h 1.33334 v 4.22401 h 0.93867 l 1.39734,-2.304 h 1.48267 l -1.73867,2.83734 1.80267,3.02934 h -1.51467 l -1.42934,-2.43201 h -0.93867 v 2.43201 z m 8.73602,0.10667 q -0.74667,0 -1.30134,-0.288 -0.55467,-0.288 -0.86401,-0.81067 -0.29866,-0.53334 -0.29866,-1.248 v -1.38668 q 0,-0.71466 0.29866,-1.23733 0.30934,-0.53334 0.86401,-0.82134 0.55467,-0.288 1.30134,-0.288 0.736,0 1.28,0.288 0.55467,0.288 0.85334,0.81067 0.30933,0.512 0.30933,1.20534 v 1.06667 h -3.62668 v 0.40533 q 0,0.59734 0.30934,0.90667 0.30933,0.29867 0.87467,0.29867 0.416,0 0.704,-0.13867 0.29866,-0.14933 0.352,-0.42667 h 1.32267 q -0.13867,0.75734 -0.78934,1.21601 -0.65067,0.448 -1.58933,0.448 z m -1.18401,-3.77601 v 0.20266 l 2.34668,-0.0107 v -0.20267 q 0,-0.608 -0.29867,-0.93867 -0.29867,-0.33067 -0.864,-0.33067 -0.58667,0 -0.88534,0.34134 -0.29867,0.33067 -0.29867,0.93867 z m 5.408,3.66934 v -5.86668 h 1.30134 v 1.14133 q 0.10667,-0.576 0.52267,-0.90667 0.42667,-0.34133 1.09867,-0.34133 0.896,0 1.39734,0.576 0.50133,0.576 0.50133,1.61067 v 0.55467 h -1.33334 v -0.49067 q 0,-0.53333 -0.27733,-0.81067 -0.27734,-0.288 -0.78934,-0.288 -0.53333,0 -0.81067,0.32 -0.27733,0.32001 -0.27733,0.90667 v 3.59468 z m 12.58667,1.92001 v -7.78669 h 1.30134 v 1.07733 q 0.16,-0.55466 0.576,-0.864 0.41601,-0.32 1.03467,-0.32 0.56534,0 0.99201,0.27733 0.43733,0.27734 0.672,0.78934 0.24533,0.50134 0.24533,1.17334 v 1.58934 q 0,1.01333 -0.52267,1.632 -0.52266,0.61867 -1.38667,0.61867 -0.61866,0 -1.04533,-0.32 -0.416,-0.32 -0.576,-0.896 l 0.0427,1.38667 v 1.64267 z m 2.41068,-2.96534 q 0.512,0 0.78933,-0.27734 0.28801,-0.27733 0.28801,-0.85333 v -1.51468 q 0,-0.576 -0.28801,-0.85333 -0.27733,-0.27734 -0.78933,-0.27734 -0.512,0 -0.8,0.30934 -0.27734,0.30933 -0.27734,0.87467 v 1.408 q 0,0.56534 0.27734,0.87467 0.288,0.30934 0.8,0.30934 z m 5.71734,1.152 q -0.89601,0 -1.41868,-0.50134 -0.512,-0.512 -0.512,-1.33333 0,-0.85334 0.58667,-1.35467 0.58667,-0.51201 1.61067,-0.51201 h 1.42934 v -0.416 q 0,-0.88533 -1.03467,-0.88533 -0.46933,0 -0.74667,0.18133 -0.27733,0.18133 -0.30933,0.512 h -1.28001 q 0.0427,-0.78933 0.66134,-1.28 0.62933,-0.49067 1.68534,-0.49067 1.12,0 1.73867,0.52267 0.61867,0.52267 0.61867,1.472 v 3.97868 h -1.30134 v -1.09867 q -0.0747,0.56534 -0.53333,0.88534 -0.45867,0.32 -1.19467,0.32 z m 0.42666,-1.088 q 0.58667,0 0.92801,-0.288 0.34133,-0.28801 0.34133,-0.76801 v -0.69333 h -1.36534 q -0.43733,0 -0.69333,0.24533 -0.256,0.24534 -0.256,0.62934 0,0.39466 0.26666,0.64 0.27734,0.23467 0.77867,0.23467 z m 6.72001,1.088 q -0.75734,0 -1.32267,-0.27733 -0.55467,-0.28801 -0.864,-0.80001 -0.30934,-0.52267 -0.30934,-1.22667 v -1.472 q 0,-0.704 0.30934,-1.21601 0.30933,-0.52266 0.864,-0.8 0.56533,-0.288 1.32267,-0.288 1.09867,0 1.76001,0.576 0.672,0.56534 0.704,1.54667 h -1.31201 q -0.032,-0.45866 -0.352,-0.704 -0.30933,-0.256 -0.8,-0.256 -0.544,0 -0.85334,0.29867 -0.30933,0.288 -0.30933,0.832 v 1.48267 q 0,0.544 0.30933,0.84267 0.30934,0.29867 0.85334,0.29867 0.50133,0 0.81067,-0.24533 0.30933,-0.25601 0.34133,-0.71467 h 1.31201 q -0.032,0.98133 -0.704,1.55733 -0.66134,0.56534 -1.76001,0.56534 z m 3.97866,-0.10667 v -7.78669 h 1.33334 v 4.22401 h 0.93867 l 1.39734,-2.304 h 1.48267 l -1.73868,2.83734 1.80268,3.02934 h -1.51467 l -1.42934,-2.43201 h -0.93867 v 2.43201 z m 7.14667,1.92001 v -1.10934 h 1.65334 q 0.46933,0 0.72533,-0.256 0.25601,-0.24533 0.25601,-0.672 v -0.352 l 0.0213,-0.91734 q -0.18133,0.49067 -0.58667,0.768 -0.39467,0.26667 -0.97067,0.26667 -0.896,0 -1.42934,-0.59733 -0.52267,-0.60801 -0.52267,-1.64268 v -1.14133 q 0,-1.02401 0.52267,-1.63201 0.53334,-0.608 1.42934,-0.608 0.576,0 0.97067,0.27733 0.40534,0.26667 0.58667,0.76801 v -0.93867 h 1.30134 v 5.78135 q 0,0.928 -0.61867,1.46134 -0.608,0.544 -1.66401,0.544 z m 1.54667,-3.41335 q 0.512,0 0.78934,-0.29866 0.288,-0.30934 0.288,-0.85334 v -1.024 q 0,-0.544 -0.288,-0.84267 -0.27734,-0.30934 -0.78934,-0.30934 -0.512,0 -0.78933,0.29867 -0.27734,0.288 -0.27734,0.81067 v 1.10934 q 0,0.52267 0.27734,0.82133 0.27733,0.288 0.78933,0.288 z m 6.44268,1.60001 q -0.74667,0 -1.30134,-0.288 -0.55467,-0.288 -0.864,-0.81067 -0.29867,-0.53334 -0.29867,-1.248 v -1.38668 q 0,-0.71466 0.29867,-1.23733 0.30933,-0.53334 0.864,-0.82134 0.55467,-0.288 1.30134,-0.288 0.736,0 1.28,0.288 0.55467,0.288 0.85334,0.81067 0.30933,0.512 0.30933,1.20534 v 1.06667 h -3.62668 v 0.40533 q 0,0.59734 0.30934,0.90667 0.30933,0.29867 0.87467,0.29867 0.416,0 0.704,-0.13867 0.29867,-0.14933 0.352,-0.42667 h 1.32267 q -0.13866,0.75734 -0.78933,1.21601 -0.65067,0.448 -1.58934,0.448 z m -1.18401,-3.77601 v 0.20266 l 2.34668,-0.0107 v -0.20267 q 0,-0.608 -0.29867,-0.93867 -0.29867,-0.33067 -0.864,-0.33067 -0.58667,0 -0.88534,0.34134 -0.29867,0.33067 -0.29867,0.93867 z"
           id="text9"
           style="font-weight:bold;font-size:10.6667px;font-family:'JetBrains Mono';-inkscape-font-specification:'JetBrains Mono Bold';fill:#ffffff;fill-opacity:1"
           aria-label="marker packge" />
        <path
           sodipodi:type="star"
           style="fill:#ffffff;fill-opacity:1;stroke-width:0.566134"
           id="path5"
           inkscape:flatsided="false"
           sodipodi:sides="5"
           sodipodi:cx="137.65364"
           sodipodi:cy="230.77284"
           sodipodi:r1="10.190414"
           sodipodi:r2="5.0952072"
           sodipodi:arg1="-0.78539816"
           sodipodi:arg2="-0.15707963"
           inkscape:rounded="0"
           inkscape:randomized="0"
           d="m 144.85935,223.56713 -2.17323,6.40865 4.04725,5.42341 -6.76655,-0.0865 -3.90731,5.52509 -2.00872,-6.4621 -6.4621,-2.00873 5.52509,-3.9073 -0.0865,-6.76655 5.42342,4.04725 z"
           inkscape:transform-center-x="0.87013635"
           inkscape:transform-center-y="0.87013635"
           transform="translate(1.6012691,20.015864)" />
        <path
           sodipodi:type="star"
           style="fill:#ffffff;fill-opacity:1;stroke-width:0.566134"
           id="path6"
           inkscape:flatsided="false"
           sodipodi:sides="5"
           sodipodi:cx="134.4511"
           sodipodi:cy="265.20013"
           sodipodi:r1="13.610787"
           sodipodi:r2="6.8053942"
           sodipodi:arg1="0.48995733"
           sodipodi:arg2="1.1182759"
           inkscape:rounded="0"
           inkscape:randomized="0"
           d="m 146.46061,271.60521 -9.03397,-0.28466 -5.35599,7.28059 -2.52092,-8.67978 -8.57935,-2.84402 7.47596,-5.07974 0.0537,-9.0383 7.14132,5.54033 8.61251,-2.74195 -3.06238,8.50385 z"
           inkscape:transform-center-x="1.2993348"
           inkscape:transform-center-y="1.0246465"
           transform="translate(13.610787,29.325174)" />
        <path
           sodipodi:type="star"
           style="fill:#ffffff;fill-opacity:1;stroke-width:0.566134"
           id="path8"
           inkscape:flatsided="false"
           sodipodi:sides="5"
           sodipodi:cx="286.57166"
           sodipodi:cy="257.99442"
           sodipodi:r1="12.934647"
           sodipodi:r2="6.4673243"
           sodipodi:arg1="1.1902899"
           sodipodi:arg2="1.8186085"
           inkscape:rounded="0"
           inkscape:randomized="0"
           d="m 291.37546,270.00393 -6.39013,-5.73976 -8.35095,2.01008 3.48418,-7.85106 -4.49228,-7.32107 8.54347,0.88754 5.57456,-6.53476 1.79598,8.3996 7.93755,3.28237 -7.43349,4.30369 z"
           inkscape:transform-center-x="-1.7317533"
           inkscape:transform-center-y="-0.46808095"
           transform="translate(-3.3753425e-7,-17.61396)" />
        <path
           sodipodi:type="star"
           style="fill:#ffffff;fill-opacity:1;stroke-width:0.566134"
           id="path9"
           inkscape:flatsided="false"
           sodipodi:sides="5"
           sodipodi:cx="268.15707"
           sodipodi:cy="200.34874"
           sodipodi:r1="13.131383"
           sodipodi:r2="6.5656919"
           sodipodi:arg1="0.65569563"
           sodipodi:arg2="1.2840142"
           inkscape:rounded="0"
           inkscape:randomized="0"
           d="m 278.56532,208.35509 -8.55103,-1.70881 -6.25538,6.07539 -1.01724,-8.66056 -7.71106,-4.07182 7.92234,-3.64372 1.48969,-8.59192 5.91351,6.40862 8.63174,-1.23827 -4.26758,7.60447 z"
           inkscape:transform-center-x="1.5026971"
           inkscape:transform-center-y="-0.14541884"
           transform="matrix(0.74116574,0,0,0.74116574,66.2057,41.448869)" />
      </g>
    </g>
  </g>
</svg>
